<svg xmlns="http://www.w3.org/2000/svg" width="24" height="24" viewBox="0 0 24 24" fill="none" stroke="currentColor" stroke-width="2" stroke-linecap="round" stroke-linejoin="round">
  <!-- Chip/processor outline -->
  <rect x="5" y="5" width="14" height="14" rx="2"/>
  <!-- Chip pins -->
  <path d="M9 2v3"/>
  <path d="M15 2v3"/>
  <path d="M9 19v3"/>
  <path d="M15 19v3"/>
  <path d="M2 9h3"/>
  <path d="M2 15h3"/>
  <path d="M19 9h3"/>
  <path d="M19 15h3"/>
  <!-- Brain inside chip -->
  <path d="M9 12c0-1.5.5-2.5 1.5-2.5.7 0 1 .4 1.2.8.2-.4.6-.8 1.3-.8 1 0 1.5 1 1.5 2.5 0 2-1.5 3-2.5 3s-2.5-1-2.5-3z"/>
  <path d="M12 9.5v5"/>
</svg>
